<svg width="24" height="24" viewBox="0 0 24 24" fill="none" xmlns="http://www.w3.org/2000/svg">
<path d="M13 12.2135C12.8101 11.7916 12.6141 11.3861 12.4157 11C9.65715 11.8805 7.00096 11.9784 6.00135 11.9802C6.00113 11.9984 6 12.0164 6 12.0346C6 13.5449 6.56224 14.929 7.49188 16C8.20689 15.0591 9.98181 13.1258 13 12.2135Z" fill="white" fill-opacity="0.5"/>
<path d="M12 10.1998C10.7803 8.344 9.67293 7.17347 9.65053 7.14993L9.86296 7C7.93642 7.72735 6.48049 9.20538 6 11C7.05732 10.9841 9.48531 10.8664 12 10.1998Z" fill="white" fill-opacity="0.5"/>
<path d="M12.9988 9C14.0795 8.58693 15.1271 8.02413 16 7.25689C15.0002 6.47368 13.7098 6 12.3013 6C11.8537 6 11.4183 6.0494 11 6.13965C11.382 6.60289 12.1703 7.61372 12.9988 9Z" fill="white" fill-opacity="0.5"/>
<path d="M13.6553 12C14.9236 11.8205 16.3698 11.7915 18 11.993C17.9662 10.8688 17.4763 9.83341 16.6707 9C15.5853 9.82134 14.3082 10.4235 13 10.8655C13.2233 11.2255 13.4433 11.6047 13.6553 12Z" fill="white" fill-opacity="0.5"/>
<path d="M11.9998 0C5.37255 0 0 5.37276 0 12C0 18.6272 5.37255 24 11.9998 24C18.6272 24 24 18.627 24 12C24 5.37276 18.6272 0 11.9998 0ZM11.9481 19.0547C8.0581 19.0547 4.89345 15.89 4.89345 12C4.89345 8.10997 8.0581 4.94533 11.9481 4.94533C15.8382 4.94533 19.0028 8.10997 19.0028 12C19.0028 15.89 15.8382 19.0547 11.9481 19.0547Z" fill="white" fill-opacity="0.5"/>
<path d="M13.9219 17.5113C13.7642 15.923 13.4336 14.3968 13.0263 13C10.6782 13.8865 9.40126 15.9203 9 16.6652C9.84838 17.5013 10.9083 18 12.0576 18C12.7459 18 13.402 17.8212 14 17.4986L13.9219 17.5113Z" fill="white" fill-opacity="0.5"/>
<path d="M14 13.112C14.5004 14.3211 14.9148 15.6297 15.157 17C16.6068 16.1091 17.6524 14.7451 18 13.1637C16.5046 12.951 15.1743 12.9584 14 13.112Z" fill="white" fill-opacity="0.5"/>
</svg>
