<svg width="24" height="24" viewBox="0 0 24 24" fill="none" xmlns="http://www.w3.org/2000/svg">
<path d="M11.9999 0C5.37239 0 0 5.37276 0 12C0 18.627 5.3726 24 11.9999 24C18.6272 24 24 18.627 24 12C24 5.37276 18.6272 0 11.9999 0ZM17.7153 10.6181C17.5725 12.326 16.3232 14.3187 15.1691 14.8881C14.0146 15.4574 12.7809 15.4574 12.0694 15.1095C12.0694 15.1095 11.1521 14.5559 11.0257 14.3976C10.9467 14.4608 10.6935 16.0266 10.314 17.007C9.93452 17.9873 9.41268 18.9522 8.66923 19.395C8.40053 18.5094 8.57441 16.327 9.09625 14.3976C9.61851 12.4683 9.82393 11.5668 9.82393 11.5668C9.82393 11.5668 9.15974 10.3015 9.80816 8.91005C10.4566 7.51841 11.6741 7.83463 11.9115 8.05602C12.1489 8.27741 12.5757 8.45129 12.2277 9.87468C11.8798 11.2981 11.2946 12.6897 11.7849 13.4489C12.0852 13.8759 13.6827 14.2237 14.5838 13.0219C15.3115 11.8041 15.5964 11.2508 15.6279 9.33707C15.6279 9.33707 15.6619 6.26683 12.9232 6.07947C10.6145 5.92115 9.54817 6.90756 8.84332 7.59747C8.10008 8.32493 7.5467 10.3173 8.24242 11.4244C8.59038 11.9145 8.60615 12.1992 8.55864 12.4839C8.51112 12.7685 8.28973 13.1956 8.28973 13.1956C8.28973 13.1956 6.32893 12.8478 6.2341 10.4438C6.13907 8.04005 7.26181 6.66418 8.25819 5.90518C9.25477 5.14618 10.9836 4.17616 14.3995 4.8088C16.6556 5.42069 18.0788 7.36051 17.7153 10.6181Z" fill="white" fill-opacity="0.5"/>
</svg>
