<svg width="199" height="132" viewBox="0 0 199 132" fill="none" xmlns="http://www.w3.org/2000/svg">
<g clip-path="url(#clip0_18_14)">
<g filter="url(#filter0_d_18_14)">
<path d="M110.231 116.721L124.008 96.7426L128.6 73.6912L137.785 46.0294L148.5 29.125L150.031 10.6838L145.438 3H134.723L128.6 10.6838V19.9044L116.354 13.7574H99.5154" stroke="black" stroke-width="0.33"/>
<path d="M88.8 116.721L75.0231 96.7426L70.4308 73.6912L61.2462 46.0294L50.5308 29.125L49 10.6838L53.5923 3H64.3077L70.4308 10.6838V19.9044L82.6769 13.7574H99.5154" stroke="black" stroke-width="0.33"/>
<path d="M136.254 29.1251L133.192 22.978V12.2206L136.254 7.61035H143.908L145.438 10.6839L143.908 29.1251L137.785 38.3456L136.254 29.1251Z" fill="#D9D9D9" stroke="black" stroke-width="0.33"/>
<path d="M62.7769 29.1251L65.8385 22.978V12.2206L62.7769 7.61035H55.1231L53.5923 10.6839L55.1231 29.1251L61.2462 38.3456L62.7769 29.1251Z" fill="#D9D9D9" stroke="black" stroke-width="0.33"/>
<path d="M99.5154 104.427H94.9231L91.8615 105.963L88.8 109.344V116.721L90.3308 124.404L96.4538 129.015H99.5154" stroke="black" stroke-width="0.33"/>
<path d="M99.5154 104.427H104.108L107.169 105.963L110.231 109.037V116.721L108.7 124.404L102.577 129.015H99.5154" stroke="black" stroke-width="0.33"/>
<path d="M73.6181 58.1069C74.1285 52.4722 76.0416 41.7265 89.5124 55.25C106.351 72.1544 83.3893 53.7133 73.6181 58.1069Z" fill="#D9D9D9" stroke="black" stroke-width="0.33"/>
<path d="M126.125 58.1069C125.615 52.4722 123.702 41.7265 110.231 55.25C93.3923 72.1544 116.354 53.7133 126.125 58.1069Z" fill="#D9D9D9" stroke="black" stroke-width="0.33"/>
<path d="M123.782 96.289L136.028 90.142" stroke="black" stroke-width="0.33"/>
<path d="M124.008 96.2355H139.315" stroke="black" stroke-width="0.33"/>
<path d="M124.234 96.2891L136.48 102.436" stroke="black" stroke-width="0.33"/>
<path d="M75.2221 96.2764L62.7769 90.5956" stroke="black" stroke-width="0.33"/>
<path d="M75.0231 96.2355H59.7154" stroke="black" stroke-width="0.33"/>
<path d="M74.8241 96.2764L62.7769 102.89" stroke="black" stroke-width="0.33"/>
</g>
</g>
<defs>
<filter id="filter0_d_18_14" x="44.8312" y="2.83496" width="109.368" height="134.345" filterUnits="userSpaceOnUse" color-interpolation-filters="sRGB">
<feFlood flood-opacity="0" result="BackgroundImageFix"/>
<feColorMatrix in="SourceAlpha" type="matrix" values="0 0 0 0 0 0 0 0 0 0 0 0 0 0 0 0 0 0 127 0" result="hardAlpha"/>
<feOffset dy="4"/>
<feGaussianBlur stdDeviation="2"/>
<feComposite in2="hardAlpha" operator="out"/>
<feColorMatrix type="matrix" values="0 0 0 0 0 0 0 0 0 0 0 0 0 0 0 0 0 0 0.25 0"/>
<feBlend mode="normal" in2="BackgroundImageFix" result="effect1_dropShadow_18_14"/>
<feBlend mode="normal" in="SourceGraphic" in2="effect1_dropShadow_18_14" result="shape"/>
</filter>
<clipPath id="clip0_18_14">
<rect width="199" height="132" fill="white"/>
</clipPath>
</defs>
</svg>
